
            <svg id="trend-chart" width="660" height="400" title="Stack Overflow Trends Chart" version="1.1" xmlns="http://www.w3.org/2000/svg"><g></g><g class="chart-area" transform="translate(100, 20)"><g transform="translate(0,300)" fill="none" font-size="10" font-family="sans-serif" text-anchor="middle"><path class="domain" stroke="#000" d="M0.5,6V0.5H410.5V6"></path><g class="tick" opacity="1" transform="translate(16.759370548433047,0)"><line stroke="#000" y2="6" x1="0.5" x2="0.5"></line><text fill="#000" y="9" x="0.5" dy="0.71em" style="font-size: 12px;">2009</text></g><g class="tick" opacity="1" transform="translate(56.72999020655271,0)"><line stroke="#000" y2="6" x1="0.5" x2="0.5"></line><text fill="#000" y="9" x="0.5" dy="0.71em" style="font-size: 12px;">2010</text></g><g class="tick" opacity="1" transform="translate(96.70060986467236,0)"><line stroke="#000" y2="6" x1="0.5" x2="0.5"></line><text fill="#000" y="9" x="0.5" dy="0.71em" style="font-size: 12px;">2011</text></g><g class="tick" opacity="1" transform="translate(136.671229522792,0)"><line stroke="#000" y2="6" x1="0.5" x2="0.5"></line><text fill="#000" y="9" x="0.5" dy="0.71em" style="font-size: 12px;">2012</text></g><g class="tick" opacity="1" transform="translate(176.75135772792024,0)"><line stroke="#000" y2="6" x1="0.5" x2="0.5"></line><text fill="#000" y="9" x="0.5" dy="0.71em" style="font-size: 12px;">2013</text></g><g class="tick" opacity="1" transform="translate(216.72197738603987,0)"><line stroke="#000" y2="6" x1="0.5" x2="0.5"></line><text fill="#000" y="9" x="0.5" dy="0.71em" style="font-size: 12px;">2014</text></g><g class="tick" opacity="1" transform="translate(256.6925970441595,0)"><line stroke="#000" y2="6" x1="0.5" x2="0.5"></line><text fill="#000" y="9" x="0.5" dy="0.71em" style="font-size: 12px;">2015</text></g><g class="tick" opacity="1" transform="translate(296.6632167022792,0)"><line stroke="#000" y2="6" x1="0.5" x2="0.5"></line><text fill="#000" y="9" x="0.5" dy="0.71em" style="font-size: 12px;">2016</text></g><g class="tick" opacity="1" transform="translate(336.74334490740745,0)"><line stroke="#000" y2="6" x1="0.5" x2="0.5"></line><text fill="#000" y="9" x="0.5" dy="0.71em" style="font-size: 12px;">2017</text></g><g class="tick" opacity="1" transform="translate(376.7139645655271,0)"><line stroke="#000" y2="6" x1="0.5" x2="0.5"></line><text fill="#000" y="9" x="0.5" dy="0.71em" style="font-size: 12px;">2018</text></g></g><g class="grid-lines" transform="translate(0,300)" fill="none" font-size="10" font-family="sans-serif" text-anchor="middle"><path class="domain" stroke="#000" d="M0.5,-300V0.5H410.5V-300"></path><g class="tick" opacity="1" transform="translate(16.759370548433047,0)"><line stroke="#000" y2="-300" x1="0.5" x2="0.5" style="stroke: #ccc; fill: none;"></line></g><g class="tick" opacity="1" transform="translate(56.72999020655271,0)"><line stroke="#000" y2="-300" x1="0.5" x2="0.5" style="stroke: #ccc; fill: none;"></line></g><g class="tick" opacity="1" transform="translate(96.70060986467236,0)"><line stroke="#000" y2="-300" x1="0.5" x2="0.5" style="stroke: #ccc; fill: none;"></line></g><g class="tick" opacity="1" transform="translate(136.671229522792,0)"><line stroke="#000" y2="-300" x1="0.5" x2="0.5" style="stroke: #ccc; fill: none;"></line></g><g class="tick" opacity="1" transform="translate(176.75135772792024,0)"><line stroke="#000" y2="-300" x1="0.5" x2="0.5" style="stroke: #ccc; fill: none;"></line></g><g class="tick" opacity="1" transform="translate(216.72197738603987,0)"><line stroke="#000" y2="-300" x1="0.5" x2="0.5" style="stroke: #ccc; fill: none;"></line></g><g class="tick" opacity="1" transform="translate(256.6925970441595,0)"><line stroke="#000" y2="-300" x1="0.5" x2="0.5" style="stroke: #ccc; fill: none;"></line></g><g class="tick" opacity="1" transform="translate(296.6632167022792,0)"><line stroke="#000" y2="-300" x1="0.5" x2="0.5" style="stroke: #ccc; fill: none;"></line></g><g class="tick" opacity="1" transform="translate(336.74334490740745,0)"><line stroke="#000" y2="-300" x1="0.5" x2="0.5" style="stroke: #ccc; fill: none;"></line></g><g class="tick" opacity="1" transform="translate(376.7139645655271,0)"><line stroke="#000" y2="-300" x1="0.5" x2="0.5" style="stroke: #ccc; fill: none;"></line></g></g><text x="205" y="360" class="axis-label x-axis-label" style="text-anchor: middle; font-weight: bold;">Year</text><g fill="none" font-size="10" font-family="sans-serif" text-anchor="end"><path class="domain" stroke="#000" d="M-6,300.5H0.5V0.5H-6"></path><g class="tick" opacity="1" transform="translate(0,300)"><line stroke="#000" x2="-6" y1="0.5" y2="0.5"></line><text fill="#000" x="-9" y="0.5" dy="0.32em" style="font-size: 12px;">0.00%</text></g><g class="tick" opacity="1" transform="translate(0,270)"><line stroke="#000" x2="-6" y1="0.5" y2="0.5"></line><text fill="#000" x="-9" y="0.5" dy="0.32em" style="font-size: 12px;">0.20%</text></g><g class="tick" opacity="1" transform="translate(0,240)"><line stroke="#000" x2="-6" y1="0.5" y2="0.5"></line><text fill="#000" x="-9" y="0.5" dy="0.32em" style="font-size: 12px;">0.40%</text></g><g class="tick" opacity="1" transform="translate(0,210)"><line stroke="#000" x2="-6" y1="0.5" y2="0.5"></line><text fill="#000" x="-9" y="0.5" dy="0.32em" style="font-size: 12px;">0.60%</text></g><g class="tick" opacity="1" transform="translate(0,180)"><line stroke="#000" x2="-6" y1="0.5" y2="0.5"></line><text fill="#000" x="-9" y="0.5" dy="0.32em" style="font-size: 12px;">0.80%</text></g><g class="tick" opacity="1" transform="translate(0,150)"><line stroke="#000" x2="-6" y1="0.5" y2="0.5"></line><text fill="#000" x="-9" y="0.5" dy="0.32em" style="font-size: 12px;">1.00%</text></g><g class="tick" opacity="1" transform="translate(0,120)"><line stroke="#000" x2="-6" y1="0.5" y2="0.5"></line><text fill="#000" x="-9" y="0.5" dy="0.32em" style="font-size: 12px;">1.20%</text></g><g class="tick" opacity="1" transform="translate(0,90)"><line stroke="#000" x2="-6" y1="0.5" y2="0.5"></line><text fill="#000" x="-9" y="0.5" dy="0.32em" style="font-size: 12px;">1.40%</text></g><g class="tick" opacity="1" transform="translate(0,60)"><line stroke="#000" x2="-6" y1="0.5" y2="0.5"></line><text fill="#000" x="-9" y="0.5" dy="0.32em" style="font-size: 12px;">1.60%</text></g><g class="tick" opacity="1" transform="translate(0,30)"><line stroke="#000" x2="-6" y1="0.5" y2="0.5"></line><text fill="#000" x="-9" y="0.5" dy="0.32em" style="font-size: 12px;">1.80%</text></g><g class="tick" opacity="1" transform="translate(0,0)"><line stroke="#000" x2="-6" y1="0.5" y2="0.5"></line><text fill="#000" x="-9" y="0.5" dy="0.32em" style="font-size: 12px;">2.00%</text></g></g><g class="grid-lines" fill="none" font-size="10" font-family="sans-serif" text-anchor="end"><path class="domain" stroke="#000" d="M410,300.5H0.5V0.5H410"></path><g class="tick" opacity="1" transform="translate(0,300)"><line stroke="#000" x2="410" y1="0.5" y2="0.5" style="stroke: #ccc; fill: none;"></line></g><g class="tick" opacity="1" transform="translate(0,270)"><line stroke="#000" x2="410" y1="0.5" y2="0.5" style="stroke: #ccc; fill: none;"></line></g><g class="tick" opacity="1" transform="translate(0,240)"><line stroke="#000" x2="410" y1="0.5" y2="0.5" style="stroke: #ccc; fill: none;"></line></g><g class="tick" opacity="1" transform="translate(0,210)"><line stroke="#000" x2="410" y1="0.5" y2="0.5" style="stroke: #ccc; fill: none;"></line></g><g class="tick" opacity="1" transform="translate(0,180)"><line stroke="#000" x2="410" y1="0.5" y2="0.5" style="stroke: #ccc; fill: none;"></line></g><g class="tick" opacity="1" transform="translate(0,150)"><line stroke="#000" x2="410" y1="0.5" y2="0.5" style="stroke: #ccc; fill: none;"></line></g><g class="tick" opacity="1" transform="translate(0,120)"><line stroke="#000" x2="410" y1="0.5" y2="0.5" style="stroke: #ccc; fill: none;"></line></g><g class="tick" opacity="1" transform="translate(0,90)"><line stroke="#000" x2="410" y1="0.5" y2="0.5" style="stroke: #ccc; fill: none;"></line></g><g class="tick" opacity="1" transform="translate(0,60)"><line stroke="#000" x2="410" y1="0.5" y2="0.5" style="stroke: #ccc; fill: none;"></line></g><g class="tick" opacity="1" transform="translate(0,30)"><line stroke="#000" x2="410" y1="0.5" y2="0.5" style="stroke: #ccc; fill: none;"></line></g><g class="tick" opacity="1" transform="translate(0,0)"><line stroke="#000" x2="410" y1="0.5" y2="0.5" style="stroke: #ccc; fill: none;"></line></g></g><g class="lines"><path class="line" d="M3.3947649572649574,266.7L6.680021367521368,245.4L10.074786324786325,259.35L13.364605591168091,253.5L16.759370548433047,235.64999999999998L20.154135505698008,251.1L23.22037482193732,250.05L26.610576923076927,234L29.895833333333336,236.1L33.29059829059829,231.3L36.5758547008547,235.5L39.97061965811966,230.1L43.36538461538461,219.89999999999998L46.65064102564102,231.75L50.04540598290598,230.55L53.335225249287745,220.95L56.72999020655271,223.2L60.12475516381767,220.35000000000002L63.190994480056986,216L66.58119658119658,208.05L69.86645299145299,212.4L73.26121794871796,216.60000000000002L76.54647435897436,206.4L79.94123931623932,208.65L83.33600427350427,203.55L86.62126068376068,190.35000000000002L90.01602564102564,191.25L93.3058449074074,190.65L96.70060986467236,184.5L100.09537482193733,175.8L103.16161413817663,189.75L106.55181623931625,177.6L109.83707264957265,164.85L113.23183760683762,159.14999999999998L116.51709401709401,158.1L119.91185897435898,156.00000000000003L123.30662393162393,158.70000000000002L126.59188034188034,167.7L129.9866452991453,160.35L133.27646456552708,151.35L136.671229522792,163.35L140.065994480057,141.75L143.24174234330485,139.05L146.63194444444446,140.10000000000002L149.91720085470084,134.1L153.31196581196582,129.75L156.5972222222222,133.95L159.99198717948718,143.7L163.38675213675214,139.34999999999997L166.67200854700855,132.00000000000003L170.06677350427353,132.29999999999998L173.35659277065528,131.85L176.75135772792024,123.75L180.1461226851852,118.5L183.2123620014245,107.1L186.6025641025641,115.19999999999999L189.88782051282053,111.14999999999998L193.28258547008548,106.04999999999998L196.5678418803419,108L199.96260683760684,93.29999999999998L203.3573717948718,94.20000000000002L206.6426282051282,89.99999999999997L210.03739316239316,90.44999999999999L213.3272124287749,82.35L216.72197738603987,77.1L220.11674234330485,66.00000000000003L223.18298165954417,66.29999999999998L226.57318376068378,63.45000000000002L229.85844017094018,74.25000000000003L233.2532051282051,51L236.53846153846152,48.30000000000001L239.9332264957265,52.650000000000006L243.32799145299145,61.950000000000045L246.61324786324786,67.5L250.00801282051285,62.10000000000002L253.29783208689457,67.79999999999998L256.6925970441595,53.849999999999994L260.08736200142454,60.29999999999998L263.1536013176638,47.54999999999998L266.5438034188034,50.25L269.8290598290598,36.44999999999999L273.22382478632477,40.5L276.50908119658123,24.149999999999977L279.9038461538462,32.85000000000002L283.2986111111111,44.54999999999998L286.5838675213675,36.60000000000002L289.9786324786325,28.650000000000034L293.2684517450142,31.350000000000023L296.6632167022792,26.55000000000001L300.05798165954417,17.69999999999999L303.23372952279203,25.94999999999999L306.62393162393164,18.900000000000034L309.90918803418805,24.900000000000034L313.30395299145295,16.05000000000001L316.5892094017094,6.600000000000023L319.98397435897436,4.800000000000011L323.3787393162393,24.30000000000001L326.6639957264957,33L330.0587606837607,15.599999999999966L333.34857995014244,22.649999999999977L336.74334490740745,11.849999999999966L340.13810986467234,15L343.20434918091166,14.100000000000023L346.59455128205127,16.350000000000023L349.8798076923077,8.099999999999966L353.2745726495727,7.800000000000011L356.55982905982904,6L359.954594017094,17.850000000000023L363.34935897435895,21L366.6346153846154,24.30000000000001L370.02938034188037,13.800000000000011L373.3191996082621,15L376.7139645655271,18.900000000000034L380.10872952279203,48L383.1749688390313,71.1L386.56517094017096,62.69999999999999L389.8504273504273,58.650000000000006L393.2451923076923,72.30000000000001L396.53044871794873,69.90000000000003L399.9252136752137,67.79999999999998L403.31997863247864,78L406.60523504273505,69.29999999999998L410,76.95000000000002" data-legend="json" style="stroke: rgb(31, 119, 180); fill: none;"></path><path class="line" d="M3.3947649572649574,42.44999999999999L6.680021367521368,49.94999999999999L10.074786324786325,42.75L13.364605591168091,74.55000000000001L16.759370548433047,80.54999999999998L20.154135505698008,74.1L23.22037482193732,62.849999999999966L26.610576923076927,67.35000000000002L29.895833333333336,86.99999999999997L33.29059829059829,37.19999999999999L36.5758547008547,63.60000000000002L39.97061965811966,62.69999999999999L43.36538461538461,62.69999999999999L46.65064102564102,73.19999999999999L50.04540598290598,87.9L53.335225249287745,67.65L56.72999020655271,91.94999999999999L60.12475516381767,78.44999999999999L63.190994480056986,87.9L66.58119658119658,105.44999999999999L69.86645299145299,92.40000000000006L73.26121794871796,80.1L76.54647435897436,96.89999999999998L79.94123931623932,98.85L83.33600427350427,103.79999999999998L86.62126068376068,100.65L90.01602564102564,79.35L93.3058449074074,100.35L96.70060986467236,92.69999999999999L100.09537482193733,108.15L103.16161413817663,105.29999999999998L106.55181623931625,93.89999999999998L109.83707264957265,90.30000000000001L113.23183760683762,75.75000000000006L116.51709401709401,90.30000000000001L119.91185897435898,94.94999999999999L123.30662393162393,112.94999999999999L126.59188034188034,102.29999999999998L129.9866452991453,117.30000000000001L133.27646456552708,112.35L136.671229522792,115.35000000000002L140.065994480057,106.5L143.24174234330485,118.04999999999998L146.63194444444446,114.9L149.91720085470084,101.10000000000002L153.31196581196582,121.20000000000002L156.5972222222222,112.94999999999999L159.99198717948718,118.80000000000001L163.38675213675214,122.69999999999999L166.67200854700855,129.15L170.06677350427353,133.65L173.35659277065528,142.65L176.75135772792024,137.25L180.1461226851852,135.15L183.2123620014245,146.7L186.6025641025641,127.19999999999999L189.88782051282053,134.1L193.28258547008548,138.15L196.5678418803419,139.50000000000003L199.96260683760684,139.05L203.3573717948718,114.30000000000001L206.6426282051282,123.15L210.03739316239316,114.75000000000003L213.3272124287749,117.75000000000003L216.72197738603987,110.1L220.11674234330485,115.35000000000002L223.18298165954417,126.30000000000001L226.57318376068378,124.20000000000002L229.85844017094018,115.80000000000001L233.2532051282051,115.5L236.53846153846152,122.25L239.9332264957265,124.35L243.32799145299145,128.85L246.61324786324786,133.8L250.00801282051285,131.10000000000002L253.29783208689457,129.6L256.6925970441595,138.45000000000002L260.08736200142454,136.35L263.1536013176638,136.5L266.5438034188034,138.75L269.8290598290598,139.79999999999998L273.22382478632477,129.3L276.50908119658123,133.35L279.9038461538462,139.34999999999997L283.2986111111111,149.25000000000003L286.5838675213675,149.54999999999998L289.9786324786325,146.24999999999997L293.2684517450142,151.35L296.6632167022792,147.15L300.05798165954417,151.65L303.23372952279203,144.15L306.62393162393164,155.40000000000003L309.90918803418805,151.49999999999997L313.30395299145295,146.7L316.5892094017094,149.4L319.98397435897436,153.45000000000002L323.3787393162393,160.95L326.6639957264957,164.85L330.0587606837607,164.55L333.34857995014244,161.4L336.74334490740745,163.35L340.13810986467234,157.5L343.20434918091166,166.65L346.59455128205127,169.65L349.8798076923077,165.9L353.2745726495727,164.4L356.55982905982904,174L359.954594017094,168.6L363.34935897435895,180.45000000000002L366.6346153846154,177.15L370.02938034188037,172.5L373.3191996082621,184.05L376.7139645655271,186L380.10872952279203,181.20000000000002L383.1749688390313,195.60000000000002L386.56517094017096,198.3L389.8504273504273,196.95L393.2451923076923,201.14999999999998L396.53044871794873,196.64999999999998L399.9252136752137,201.45L403.31997863247864,204.9L406.60523504273505,203.7L410,207.6" data-legend="xml" style="stroke: rgb(255, 127, 14); fill: none;"></path><path class="line" d="M3.3947649572649574,280.2L6.680021367521368,272.7L10.074786324786325,280.35L13.364605591168091,276.75L16.759370548433047,277.65L20.154135505698008,283.2L23.22037482193732,283.35L26.610576923076927,275.1L29.895833333333336,281.7L33.29059829059829,280.65L36.5758547008547,278.55L39.97061965811966,280.05L43.36538461538461,279.75L46.65064102564102,279.6L50.04540598290598,273.45L53.335225249287745,281.1L56.72999020655271,283.8L60.12475516381767,278.85L63.190994480056986,276.75L66.58119658119658,282.15L69.86645299145299,275.7L73.26121794871796,275.25L76.54647435897436,268.5L79.94123931623932,279L83.33600427350427,280.8L86.62126068376068,279.3L90.01602564102564,278.1L93.3058449074074,280.65L96.70060986467236,271.65L100.09537482193733,277.65L103.16161413817663,276.15L106.55181623931625,277.5L109.83707264957265,274.8L113.23183760683762,278.25L116.51709401709401,273.15L119.91185897435898,275.1L123.30662393162393,279L126.59188034188034,273.15L129.9866452991453,275.7L133.27646456552708,273.6L136.671229522792,273.9L140.065994480057,276.75L143.24174234330485,275.7L146.63194444444446,275.25L149.91720085470084,269.7L153.31196581196582,274.2L156.5972222222222,268.2L159.99198717948718,267L163.38675213675214,271.5L166.67200854700855,270.15L170.06677350427353,271.05L173.35659277065528,269.25L176.75135772792024,268.65L180.1461226851852,265.95L183.2123620014245,265.95L186.6025641025641,263.7L189.88782051282053,265.65L193.28258547008548,255.45L196.5678418803419,259.5L199.96260683760684,258L203.3573717948718,256.35L206.6426282051282,246L210.03739316239316,245.85L213.3272124287749,255.3L216.72197738603987,247.35L220.11674234330485,245.85L223.18298165954417,244.5L226.57318376068378,246L229.85844017094018,248.25L233.2532051282051,240.60000000000002L236.53846153846152,239.4L239.9332264957265,244.8L243.32799145299145,248.10000000000002L246.61324786324786,248.55L250.00801282051285,245.4L253.29783208689457,244.95L256.6925970441595,246.6L260.08736200142454,242.1L263.1536013176638,243.45L266.5438034188034,237.9L269.8290598290598,244.05L273.22382478632477,234.15L276.50908119658123,233.7L279.9038461538462,239.25L283.2986111111111,238.65L286.5838675213675,237.15L289.9786324786325,235.95L293.2684517450142,232.8L296.6632167022792,236.25L300.05798165954417,234L303.23372952279203,231.60000000000002L306.62393162393164,232.2L309.90918803418805,231.75L313.30395299145295,230.7L316.5892094017094,234.45L319.98397435897436,234.75L323.3787393162393,231.9L326.6639957264957,232.35L330.0587606837607,233.1L333.34857995014244,228.75L336.74334490740745,233.55L340.13810986467234,229.65L343.20434918091166,225.6L346.59455128205127,228.89999999999998L349.8798076923077,223.65L353.2745726495727,219.6L356.55982905982904,223.35L359.954594017094,231.14999999999998L363.34935897435895,224.1L366.6346153846154,216.60000000000002L370.02938034188037,214.2L373.3191996082621,225.45L376.7139645655271,231L380.10872952279203,230.4L383.1749688390313,243L386.56517094017096,242.4L389.8504273504273,244.65L393.2451923076923,244.5L396.53044871794873,246.3L399.9252136752137,244.65L403.31997863247864,251.25L406.60523504273505,244.65L410,242.85" data-legend="csv" style="stroke: rgb(44, 160, 44); fill: none;"></path><path class="line" d="M3.3947649572649574,300L6.680021367521368,300L10.074786324786325,300L13.364605591168091,300L16.759370548433047,300L20.154135505698008,299.25L23.22037482193732,300L26.610576923076927,300L29.895833333333336,300L33.29059829059829,300L36.5758547008547,299.1L39.97061965811966,298.2L43.36538461538461,298.2L46.65064102564102,297.6L50.04540598290598,298.5L53.335225249287745,299.7L56.72999020655271,299.1L60.12475516381767,296.7L63.190994480056986,297L66.58119658119658,293.25L69.86645299145299,297.15L73.26121794871796,299.55L76.54647435897436,296.85L79.94123931623932,296.85L83.33600427350427,296.4L86.62126068376068,297.75L90.01602564102564,297.9L93.3058449074074,298.2L96.70060986467236,298.05L100.09537482193733,296.55L103.16161413817663,295.8L106.55181623931625,297.45L109.83707264957265,294.45L113.23183760683762,295.95L116.51709401709401,297.3L119.91185897435898,293.1L123.30662393162393,294.3L126.59188034188034,291.45L129.9866452991453,292.05L133.27646456552708,294.3L136.671229522792,292.8L140.065994480057,294.9L143.24174234330485,295.05L146.63194444444446,292.8L149.91720085470084,293.4L153.31196581196582,291.45L156.5972222222222,290.7L159.99198717948718,291.45L163.38675213675214,291.6L166.67200854700855,291.75L170.06677350427353,289.65L173.35659277065528,292.8L176.75135772792024,289.35L180.1461226851852,288.15L183.2123620014245,289.05L186.6025641025641,287.55L189.88782051282053,288L193.28258547008548,283.95L196.5678418803419,287.25L199.96260683760684,287.85L203.3573717948718,288L206.6426282051282,287.4L210.03739316239316,285.6L213.3272124287749,285.75L216.72197738603987,280.5L220.11674234330485,282.3L223.18298165954417,282.45L226.57318376068378,281.4L229.85844017094018,280.95L233.2532051282051,283.2L236.53846153846152,283.5L239.9332264957265,283.95L243.32799145299145,282.9L246.61324786324786,279.75L250.00801282051285,277.35L253.29783208689457,280.8L256.6925970441595,279.9L260.08736200142454,279.6L263.1536013176638,276L266.5438034188034,277.05L269.8290598290598,274.65L273.22382478632477,272.7L276.50908119658123,271.5L279.9038461538462,273.45L283.2986111111111,274.2L286.5838675213675,268.65L289.9786324786325,268.05L293.2684517450142,271.05L296.6632167022792,268.05L300.05798165954417,268.05L303.23372952279203,265.8L306.62393162393164,258L309.90918803418805,249.45L313.30395299145295,238.8L316.5892094017094,239.1L319.98397435897436,242.55L323.3787393162393,244.95L326.6639957264957,238.35L330.0587606837607,239.1L333.34857995014244,252.3L336.74334490740745,247.65L340.13810986467234,242.85L343.20434918091166,231.9L346.59455128205127,230.55L349.8798076923077,229.2L353.2745726495727,227.4L356.55982905982904,220.64999999999998L359.954594017094,206.4L363.34935897435895,205.5L366.6346153846154,204.14999999999998L370.02938034188037,212.10000000000002L373.3191996082621,219L376.7139645655271,224.1L380.10872952279203,210.45L383.1749688390313,202.64999999999998L386.56517094017096,203.10000000000002L389.8504273504273,197.10000000000002L393.2451923076923,190.5L396.53044871794873,187.5L399.9252136752137,199.65L403.31997863247864,205.35L406.60523504273505,200.55L410,191.25" data-legend="dataframe" style="stroke: rgb(214, 39, 40); fill: none;"></path></g></g><g transform="translate(20, 150)"><text transform="rotate(-90)" x="-50" y="0" dy="1em" class="axis-label y-axis-label" style="text-anchor: middle; font-weight: bold;">% of Stack Overflow questions that month</text></g><g class="legend" transform="translate(530, 30)" style="font-size: 12px;"><text class="legend-title" style="font-weight: bold;">Tag</text><g class="legend-items" transform="translate(0,20)"><text y="0em" x="1em">json</text><text y="1em" x="1em">xml</text><text y="2em" x="1em">dataframe</text><text y="3em" x="1em">csv</text><circle cy="-0.25em" cx="0" r="0.4em" style="fill: rgb(31, 119, 180);"></circle><circle cy="0.75em" cx="0" r="0.4em" style="fill: rgb(255, 127, 14);"></circle><circle cy="1.75em" cx="0" r="0.4em" style="fill: rgb(214, 39, 40);"></circle><circle cy="2.75em" cx="0" r="0.4em" style="fill: rgb(44, 160, 44);"></circle></g><rect class="legend-box"></rect></g></svg>
        